<mxfile host="app.diagrams.net" modified="2024-05-02T13:52:04.915Z" agent="Mozilla/5.0 (X11; Linux x86_64; rv:125.0) Gecko/20100101 Firefox/125.0" etag="Wi4rklZH-bF-9PBBsr4S" version="24.3.1" type="device">
  <diagram name="Page-1" id="mj8IaugpkL7j0PInXuVn">
    <mxGraphModel dx="1673" dy="523" grid="1" gridSize="10" guides="1" tooltips="1" connect="1" arrows="1" fold="1" page="1" pageScale="1" pageWidth="850" pageHeight="1100" math="0" shadow="0">
      <root>
        <mxCell id="0" />
        <mxCell id="1" parent="0" />
        <mxCell id="6bJLn7jsdk21VxwLdGjG-1" value="" style="rounded=0;whiteSpace=wrap;html=1;" vertex="1" parent="1">
          <mxGeometry y="250" width="720" height="50" as="geometry" />
        </mxCell>
        <mxCell id="6bJLn7jsdk21VxwLdGjG-2" value="&lt;div&gt;0x0000&lt;/div&gt;" style="text;html=1;align=center;verticalAlign=middle;resizable=0;points=[];autosize=1;strokeColor=none;fillColor=none;" vertex="1" parent="1">
          <mxGeometry x="-30" y="210" width="60" height="30" as="geometry" />
        </mxCell>
        <mxCell id="6bJLn7jsdk21VxwLdGjG-3" value="0xFFFF" style="text;html=1;align=center;verticalAlign=middle;resizable=0;points=[];autosize=1;strokeColor=none;fillColor=none;" vertex="1" parent="1">
          <mxGeometry x="680" y="210" width="70" height="30" as="geometry" />
        </mxCell>
        <mxCell id="6bJLn7jsdk21VxwLdGjG-4" value="Chunk&lt;br style=&quot;font-size: 10px;&quot;&gt;Metadata" style="rounded=0;whiteSpace=wrap;html=1;fontSize=10;fillColor=#99c1f1;" vertex="1" parent="1">
          <mxGeometry y="250" width="50" height="50" as="geometry" />
        </mxCell>
        <mxCell id="6bJLn7jsdk21VxwLdGjG-5" value="Data" style="rounded=0;whiteSpace=wrap;html=1;fillColor=#99c1f1;" vertex="1" parent="1">
          <mxGeometry x="50" y="250" width="180" height="50" as="geometry" />
        </mxCell>
        <mxCell id="6bJLn7jsdk21VxwLdGjG-7" value="Data" style="rounded=0;whiteSpace=wrap;html=1;fillColor=#8ff0a4;" vertex="1" parent="1">
          <mxGeometry x="280" y="250" width="180" height="50" as="geometry" />
        </mxCell>
        <mxCell id="6bJLn7jsdk21VxwLdGjG-8" value="Chunk&lt;br style=&quot;font-size: 10px;&quot;&gt;Metadata" style="rounded=0;whiteSpace=wrap;html=1;fontSize=10;fillColor=#8ff0a4;" vertex="1" parent="1">
          <mxGeometry x="230" y="250" width="50" height="50" as="geometry" />
        </mxCell>
        <mxCell id="6bJLn7jsdk21VxwLdGjG-9" value="Free memory" style="rounded=0;whiteSpace=wrap;html=1;fillColor=#eeeeee;strokeColor=#36393d;" vertex="1" parent="1">
          <mxGeometry x="460" y="250" width="260" height="50" as="geometry" />
        </mxCell>
        <mxCell id="6bJLn7jsdk21VxwLdGjG-10" value="&lt;div style=&quot;font-size: 16px;&quot;&gt;Normal implementation&lt;/div&gt;" style="text;html=1;align=center;verticalAlign=middle;resizable=0;points=[];autosize=1;strokeColor=none;fillColor=none;fontSize=16;" vertex="1" parent="1">
          <mxGeometry x="265" y="170" width="190" height="30" as="geometry" />
        </mxCell>
        <mxCell id="6bJLn7jsdk21VxwLdGjG-11" value="" style="rounded=0;whiteSpace=wrap;html=1;" vertex="1" parent="1">
          <mxGeometry y="481" width="720" height="50" as="geometry" />
        </mxCell>
        <mxCell id="6bJLn7jsdk21VxwLdGjG-12" value="&lt;div&gt;0x0000&lt;/div&gt;" style="text;html=1;align=center;verticalAlign=middle;resizable=0;points=[];autosize=1;strokeColor=none;fillColor=none;" vertex="1" parent="1">
          <mxGeometry x="-30" y="441" width="60" height="30" as="geometry" />
        </mxCell>
        <mxCell id="6bJLn7jsdk21VxwLdGjG-13" value="0xFFFF" style="text;html=1;align=center;verticalAlign=middle;resizable=0;points=[];autosize=1;strokeColor=none;fillColor=none;" vertex="1" parent="1">
          <mxGeometry x="680" y="441" width="70" height="30" as="geometry" />
        </mxCell>
        <mxCell id="6bJLn7jsdk21VxwLdGjG-14" value="Chunk&lt;br style=&quot;font-size: 10px;&quot;&gt;Metadata" style="rounded=0;whiteSpace=wrap;html=1;fontSize=10;fillColor=#99c1f1;" vertex="1" parent="1">
          <mxGeometry y="481" width="50" height="50" as="geometry" />
        </mxCell>
        <mxCell id="6bJLn7jsdk21VxwLdGjG-15" value="Data" style="rounded=0;whiteSpace=wrap;html=1;fillColor=#99c1f1;" vertex="1" parent="1">
          <mxGeometry x="460" y="481" width="80" height="50" as="geometry" />
        </mxCell>
        <mxCell id="6bJLn7jsdk21VxwLdGjG-16" value="Data" style="rounded=0;whiteSpace=wrap;html=1;fillColor=#8ff0a4;" vertex="1" parent="1">
          <mxGeometry x="540" y="481" width="80" height="50" as="geometry" />
        </mxCell>
        <mxCell id="6bJLn7jsdk21VxwLdGjG-17" value="Chunk&lt;br style=&quot;font-size: 10px;&quot;&gt;Metadata" style="rounded=0;whiteSpace=wrap;html=1;fontSize=10;fillColor=#8ff0a4;" vertex="1" parent="1">
          <mxGeometry x="50" y="481" width="50" height="50" as="geometry" />
        </mxCell>
        <mxCell id="6bJLn7jsdk21VxwLdGjG-19" value="" style="shape=curlyBracket;whiteSpace=wrap;html=1;rounded=1;labelPosition=left;verticalLabelPosition=middle;align=right;verticalAlign=middle;rotation=-90;size=0.5;" vertex="1" parent="1">
          <mxGeometry x="220" y="80" width="20" height="460" as="geometry" />
        </mxCell>
        <mxCell id="6bJLn7jsdk21VxwLdGjG-20" value="Page" style="rounded=0;whiteSpace=wrap;html=1;" vertex="1" parent="1">
          <mxGeometry x="197.5" y="320" width="65" height="30" as="geometry" />
        </mxCell>
        <mxCell id="6bJLn7jsdk21VxwLdGjG-21" value="&lt;div&gt;0x1000&lt;/div&gt;" style="text;html=1;align=center;verticalAlign=middle;resizable=0;points=[];autosize=1;strokeColor=none;fillColor=none;" vertex="1" parent="1">
          <mxGeometry x="430" y="210" width="60" height="30" as="geometry" />
        </mxCell>
        <mxCell id="6bJLn7jsdk21VxwLdGjG-22" value="(= 4096 bytes)" style="text;html=1;align=center;verticalAlign=middle;resizable=0;points=[];autosize=1;strokeColor=none;fillColor=none;fontSize=7;" vertex="1" parent="1">
          <mxGeometry x="470" y="215" width="70" height="20" as="geometry" />
        </mxCell>
        <mxCell id="6bJLn7jsdk21VxwLdGjG-23" value="&lt;div&gt;0x1000&lt;/div&gt;" style="text;html=1;align=center;verticalAlign=middle;resizable=0;points=[];autosize=1;strokeColor=none;fillColor=none;" vertex="1" parent="1">
          <mxGeometry x="420" y="441" width="60" height="30" as="geometry" />
        </mxCell>
        <mxCell id="6bJLn7jsdk21VxwLdGjG-24" value="(= 4096 bytes)" style="text;html=1;align=center;verticalAlign=middle;resizable=0;points=[];autosize=1;strokeColor=none;fillColor=none;fontSize=7;" vertex="1" parent="1">
          <mxGeometry x="460" y="446" width="70" height="20" as="geometry" />
        </mxCell>
        <mxCell id="6bJLn7jsdk21VxwLdGjG-25" value="" style="shape=curlyBracket;whiteSpace=wrap;html=1;rounded=1;labelPosition=left;verticalLabelPosition=middle;align=right;verticalAlign=middle;rotation=-90;size=0.5;" vertex="1" parent="1">
          <mxGeometry x="220" y="311" width="20" height="460" as="geometry" />
        </mxCell>
        <mxCell id="6bJLn7jsdk21VxwLdGjG-26" value="Dedicated Page(s)" style="rounded=0;whiteSpace=wrap;html=1;" vertex="1" parent="1">
          <mxGeometry x="180" y="551" width="110" height="30" as="geometry" />
        </mxCell>
        <mxCell id="6bJLn7jsdk21VxwLdGjG-27" value="&lt;div style=&quot;font-size: 16px;&quot;&gt;Secured implementation&lt;/div&gt;" style="text;html=1;align=center;verticalAlign=middle;resizable=0;points=[];autosize=1;strokeColor=none;fillColor=none;fontSize=16;" vertex="1" parent="1">
          <mxGeometry x="260" y="397" width="200" height="30" as="geometry" />
        </mxCell>
        <mxCell id="6bJLn7jsdk21VxwLdGjG-28" value="" style="line;strokeWidth=2;direction=south;html=1;" vertex="1" parent="1">
          <mxGeometry x="457" y="481" width="5" height="49" as="geometry" />
        </mxCell>
        <mxCell id="6bJLn7jsdk21VxwLdGjG-29" value="" style="shape=curlyBracket;whiteSpace=wrap;html=1;rounded=1;labelPosition=left;verticalLabelPosition=middle;align=right;verticalAlign=middle;rotation=-90;size=0.5;" vertex="1" parent="1">
          <mxGeometry x="579.75" y="411.75" width="20" height="258.5" as="geometry" />
        </mxCell>
        <mxCell id="6bJLn7jsdk21VxwLdGjG-30" value="N pages" style="rounded=0;whiteSpace=wrap;html=1;" vertex="1" parent="1">
          <mxGeometry x="557.25" y="551" width="65" height="30" as="geometry" />
        </mxCell>
        <mxCell id="6bJLn7jsdk21VxwLdGjG-31" value="Free memory" style="rounded=0;whiteSpace=wrap;html=1;fillColor=#eeeeee;strokeColor=#36393d;" vertex="1" parent="1">
          <mxGeometry x="100" y="481" width="360" height="49" as="geometry" />
        </mxCell>
        <mxCell id="6bJLn7jsdk21VxwLdGjG-32" value="Free memory" style="rounded=0;whiteSpace=wrap;html=1;fillColor=#eeeeee;strokeColor=#36393d;" vertex="1" parent="1">
          <mxGeometry x="620" y="481" width="100" height="49" as="geometry" />
        </mxCell>
      </root>
    </mxGraphModel>
  </diagram>
</mxfile>
